<svg xmlns="http://www.w3.org/2000/svg" viewBox="0 0 265.71 264.51"><defs><style>.cls-1{fill:#2d3e50;}.cls-2{fill:#2e79bd;}</style></defs><title>Zasób 6</title><g id="Warstwa_2" data-name="Warstwa 2"><g id="Layer_1" data-name="Layer 1"><path class="cls-1" d="M260.22,110.68a41,41,0,0,0-56-15l-.09.05a16.58,16.58,0,0,1-16.95,0l-.09-.05a41,41,0,0,0-56,56,130.44,130.44,0,0,1,15.72,43.88l10.07,60.67c1.83,11,17.66,11,19.49,0l10.84-65.31a8.62,8.62,0,0,1,17,0l10.84,65.31c1.83,11,17.66,11,19.49,0l10.07-60.67a130.44,130.44,0,0,1,15.72-43.88A41,41,0,0,0,260.22,110.68Z"/><path class="cls-2" d="M166.14,39.58h15V52.63a5.64,5.64,0,0,0,5.64,5.64h4.83V82.76a3.92,3.92,0,0,0,4,3.92,4,4,0,0,0,3.81-4.08V58.27h4.83a5.64,5.64,0,0,0,5.64-5.64V39.58h7.41a5.47,5.47,0,0,0,5.47-5.47v-10a5.47,5.47,0,0,0-5.47-5.47H168.21A252,252,0,0,0,72.8,0H0V20.92H72.8a231.2,231.2,0,0,1,89.32,17.86A10.51,10.51,0,0,0,166.14,39.58Z"/></g></g></svg>