<svg xmlns="http://www.w3.org/2000/svg" viewBox="0 0 210.59 261.84"><defs><style>.cls-1{fill:#2d3e50;}.cls-2{fill:#2e79bd;}</style></defs><title>Zasób 8</title><g id="Warstwa_2" data-name="Warstwa 2"><g id="Layer_1" data-name="Layer 1"><path class="cls-1" d="M147.1,100a5.23,5.23,0,0,1-5.23,5.23H68.7A5.23,5.23,0,0,1,63.47,100V81.41H3.26a61.49,61.49,0,0,0,5,11,196,196,0,0,1,23.61,65.89L47,249.44c2.75,16.54,26.52,16.54,29.26,0l16.28-98.08a12.95,12.95,0,0,1,25.54,0l16.28,98.08c2.75,16.54,26.52,16.54,29.26,0l15.12-91.12a196,196,0,0,1,23.61-65.89,62.07,62.07,0,0,0,5-11H147.1Z"/><path class="cls-1" d="M202.33,30.81A61.62,61.62,0,0,0,118.16,8.25l-.14.08a25.67,25.67,0,0,1-12.72,3.5,25.67,25.67,0,0,1-12.72-3.5l-.14-.08A61.61,61.61,0,0,0,.71,71H63.47V52.41a5.23,5.23,0,0,1,5.23-5.23h73.17a5.23,5.23,0,0,1,5.23,5.23V71h62.77a61.49,61.49,0,0,0-7.54-40.14Z"/><rect class="cls-2" x="73.93" y="57.64" width="62.71" height="37.09"/></g></g></svg>