<svg xmlns="http://www.w3.org/2000/svg" viewBox="0 0 198.75 261.84"><defs><style>.cls-1{fill:#2d3e50;}</style></defs><title>Zasób 7</title><g id="Warstwa_2" data-name="Warstwa 2"><g id="Layer_1" data-name="Layer 1"><path class="cls-1" d="M147.55,127.35a5.23,5.23,0,0,1-7.08-.37l-30-30.7a5.23,5.23,0,0,1-1-5.89L123.31,61a5.11,5.11,0,0,1,1.45-1.85l19.6-15.74a5.23,5.23,0,0,1,6.52,0l17,13.46L198.75,39a60.81,60.81,0,0,0-3.94-8.15A61.62,61.62,0,0,0,110.64,8.25l-.14.08a25.72,25.72,0,0,1-12.72,3.5A25.73,25.73,0,0,1,85,8.34l-.14-.08A61.63,61.63,0,0,0,9.73,18.85L34.51,39.63l30.16-3.75a5.23,5.23,0,0,1,5.07,2.4L94.41,77.4a5.23,5.23,0,0,1-.8,6.56l-24.8,23.83a5.23,5.23,0,0,1-2.31,1.29l-25,6.46a5.14,5.14,0,0,1-1.31.17,5.23,5.23,0,0,1-4.71-3L24.19,89.21,0,91.12c.24.44.48.87.73,1.31a196,196,0,0,1,23.61,65.9l15.11,91.11C42.21,266,66,266,68.73,249.44L85,151.36a12.95,12.95,0,0,1,25.54,0l16.27,98.08c2.75,16.54,26.52,16.54,29.27,0l15.12-91.11a195.75,195.75,0,0,1,13.54-45.89l-18.43-.64Z"/></g></g></svg>