<svg xmlns="http://www.w3.org/2000/svg" viewBox="0 0 259.42 206.79"><defs><style>.cls-1{fill:#2d3e50;}.cls-2{fill:#2e79bd;}</style></defs><title>Zasób 1</title><g id="Warstwa_2" data-name="Warstwa 2"><g id="Layer_1" data-name="Layer 1"><path class="cls-1" d="M163.87,2a48.13,48.13,0,0,0-24.1,6.45l-.11.06a20.06,20.06,0,0,1-10,2.74,20.08,20.08,0,0,1-10-2.74l-.1-.06A48.2,48.2,0,0,0,53.81,74.29,152.58,152.58,0,0,1,65.36,99.23a152.75,152.75,0,0,1,6.92,26.6L84.1,197.09c2.15,12.93,20.75,12.93,22.89,0l12.73-76.71a10.12,10.12,0,0,1,20,0l12.74,76.71c2.14,12.93,20.74,12.93,22.89,0l11.83-71.27a153.28,153.28,0,0,1,18.47-51.54A48.19,48.19,0,0,0,163.87,2ZM146.7,60.9,129.29,89.73a3.49,3.49,0,0,1-3,1.68,3.33,3.33,0,0,1-.93-.13,3.46,3.46,0,0,1-2.54-3.34V67.54h-7.15a3.47,3.47,0,0,1-3-5.27l17.42-28.83a3.47,3.47,0,0,1,6.44,1.79v20.4h7.15a3.47,3.47,0,0,1,3,5.27Z"/><path class="cls-2" d="M6.54,43.66a6.54,6.54,0,0,0,0,13.08H37.28a58.75,58.75,0,0,1,0-13.08Z"/><path class="cls-2" d="M.88,3.27a6.54,6.54,0,0,0,2.4,8.93L39.45,33.09A58.49,58.49,0,0,1,44.67,21L9.81.88A6.54,6.54,0,0,0,.88,3.27Z"/><path class="cls-2" d="M3.27,88.19A6.54,6.54,0,1,0,9.81,99.51L44.67,79.38A58.29,58.29,0,0,1,39.45,67.3Z"/><path class="cls-2" d="M252.88,56.73a6.54,6.54,0,1,0,0-13.08H222.14a58.75,58.75,0,0,1,0,13.08Z"/><path class="cls-2" d="M256.15,12.2A6.54,6.54,0,1,0,249.61.88L214.75,21A58.47,58.47,0,0,1,220,33.09Z"/><path class="cls-2" d="M256.15,88.19,220,67.3a58.3,58.3,0,0,1-5.22,12.08l34.86,20.13a6.54,6.54,0,1,0,6.54-11.32Z"/></g></g></svg>