<svg id="Layer_1" data-name="Layer 1" xmlns="http://www.w3.org/2000/svg" viewBox="0 0 512 512"><title>map-glyph</title><path d="M37.86,86.16,160,121.05V506.76L26.14,468.51A21.33,21.33,0,0,1,10.67,448V106.67a21.34,21.34,0,0,1,27.2-20.51ZM352,270.32C313.11,234.95,245.33,162.73,245.33,112,245.33,51.29,294.18,0,352,0S458.67,51.29,458.67,112C458.67,162.64,390.88,234.91,352,270.32Zm0-121a42.67,42.67,0,1,0-42.67-42.67A42.67,42.67,0,0,0,352,149.33Zm146-11.08c-17.36,71.46-97.6,146.55-124.63,170.22V482.38l100.8,28.8a21.34,21.34,0,0,0,27.2-20.51V149.33A21.07,21.07,0,0,0,498,138.25ZM203.1,120.93l-.43.12V506.76l128-36.57V308.47C301.43,282.88,210,197.16,203.1,120.93Z"/></svg>