<svg xmlns="http://www.w3.org/2000/svg" viewBox="0 0 266.71 251.57"><defs><style>.cls-1{fill:#2d3e50;}.cls-2{fill:#2e79bd;}</style></defs><title>Zasób 5</title><g id="Warstwa_2" data-name="Warstwa 2"><g id="Layer_1" data-name="Layer 1"><path class="cls-1" d="M260.67,82.49A45.1,45.1,0,0,0,199.07,66L199,66a18.22,18.22,0,0,1-18.63,0l-.1-.06a45.1,45.1,0,0,0-61.6,61.6h0a143.39,143.39,0,0,1,17.28,48.23L147,242.49c2,12.1,19.41,12.1,21.42,0l11.91-71.78a9.47,9.47,0,0,1,18.69,0l11.91,71.78c2,12.1,19.41,12.1,21.42,0l11.06-66.68a143.37,143.37,0,0,1,17.28-48.23h0A45.09,45.09,0,0,0,260.67,82.49Z"/><path class="cls-2" d="M158.27,49.71h10.46V20.92h7V49.71h10.46V20.92h7V49.71H203.6V20.92h7V49.71H221V8.22A8.22,8.22,0,0,0,212.81,0h-58.7l-1.93.8A231.21,231.21,0,0,1,62.86,18.66H0V39.58H62.86a252,252,0,0,0,95.41-18.66Z"/></g></g></svg>