<svg xmlns="http://www.w3.org/2000/svg" viewBox="0 0 210.6 263.47"><defs><style>.cls-1{fill:#2d3e50;}.cls-2{fill:#2e79bd;}</style></defs><title>Zasób 3</title><g id="Warstwa_2" data-name="Warstwa 2"><g id="Layer_1" data-name="Layer 1"><path class="cls-1" d="M202.34,30.81A61.62,61.62,0,0,0,118.17,8.25l-.14.08a25.69,25.69,0,0,1-12.73,3.5,25.68,25.68,0,0,1-12.73-3.5l-.14-.08A61.62,61.62,0,0,0,8.26,92.43a195.59,195.59,0,0,1,15.11,32.86H187.23a195.63,195.63,0,0,1,15.12-32.86,61.59,61.59,0,0,0,0-61.62Z"/><path class="cls-2" d="M76.26,145.48l-11.51.69a6.54,6.54,0,0,0,.38,13.06h.4l10.73-.64v10.77L64.75,170a6.54,6.54,0,0,0,.38,13.06h.4l10.73-.64v10.77l-11.51.69A6.54,6.54,0,0,0,65.13,207h.4l10.73-.64V223a6.54,6.54,0,0,0,1.09,3.61l22.5,33.9a6.53,6.53,0,0,0,10.89,0l22.5-33.9a6.54,6.54,0,0,0,1.09-3.61V202.84l11.51-.69a6.54,6.54,0,0,0-.78-13.05l-10.73.64V179l11.51-.69a6.54,6.54,0,0,0-.78-13.05l-10.73.64V155.1l11.51-.69a6.54,6.54,0,0,0-.78-13.05l-10.73.64V125.29H76.26Z"/></g></g></svg>